<svg fill="none" height="44" viewBox="0 0 176 44" width="176" xmlns="http://www.w3.org/2000/svg" xmlns:xlink="http://www.w3.org/1999/xlink"><clipPath id="a"><path d="m0 0h48v43.6364h-48z"/></clipPath><g clip-path="url(#a)"><path d="m39.4588 2.51614c.2544.0896.4761.25348.6363.47045.1603.21696.2518.47702.2627.74655.1382 1.43934.1971 2.8852.1765 4.33101-.0152.66326-.0305 1.32652-.0746 1.98975-.2495-.10341-.4853-.20686-.7363-.30422-.6328-.24948-1.2519-.48526-1.8863-.70736.0152-.33772.0305-.66176.0305-1.001.0137-1.07552-.0153-2.16626-.1035-3.27068-1.0314-.32403-2.1069-.61915-3.1946-.88385-1.3692-.32403-2.7383-.59024-4.1257-.78191-.7804-.10193-1.5319-.19169-2.253-.26471-.721-.07302-1.4893-.11714-2.2697-.15212-.6085-.01522-1.1789-.02891-1.7966-.02891l-.899.0137c-.2662 0-.575.01521-.899.01521-.7805.03042-1.5319.08823-2.2697.15212s-1.4726.16278-2.253.26471c-1.3691.19167-2.755.45636-4.1257.78191-1.0907.2647-2.151.55982-3.1946.88385-.1795 2.42163-.1152 4.85517.1917 7.26396.1629 1.3475.399 2.6851.7074 4.007.1765.7515.3833 1.503.6085 2.224l.0152.0594.0137.0593.0152.0593.0289.0578.0152.0594.0152.0593.0152.0593.0578.1613v.0152l.0152.0578.1035.2799.0137.0593.0898.2358.0136.0442c.4551 1.3192.9817 2.6127 1.5776 3.8746l.0289.0441.0152.0456.0137.0289.0304.0442.0137.0441.0152.0441.0289.0289c.2221.4563.4564.9127.6937 1.3691.1765.2951.3377.6085.5004.8839.1917.3397.3687.6343.531.8838.5005.8108 1.0299 1.6064 1.5912 2.3732.5614.7667 1.1334 1.5029 1.7677 2.2392.2363.2799.5015.5745.7956.8839.28.3042.5446.6085.7957.8686.648.6633 1.325 1.2976 2.0034 1.9153l.2799.2358c-.1917.1521-.3833.3042-.5887.4563-.5309.3971-1.0755.7804-1.6216 1.1638-2.9437-2.6389-5.4762-5.7031-7.5135-9.091v-.0152l-.0152-.0137-.0152-.0152c-.1171-.1917-.2206-.3834-.3241-.5446-.1764-.3241-.3681-.6496-.5294-.9584-.4868-.8839-.9294-1.7966-1.3553-2.755-.426-.9584-.7956-1.9-1.13489-2.8432-.47388-1.3333-.87713-2.6906-1.20793-4.0663-1.00087-4.2327-1.2994-8.60111-.88378-12.93064.01246-.26993.10627-.52977.26918-.74536.16292-.21558.38729-.37682.64357-.46251 1.39955-.47159 2.82945-.88385 4.27315-1.2383 1.4148-.324027 2.8721-.608498 4.3614-.824515.7606-.103445 1.5609-.191676 2.4006-.264696.8108-.074541 1.6064-.1323499 2.3868-.1627749.2952 0 .6085-.0152088.9432-.0152088l.9584-.0136953.9569.0136953c.3392 0 .6632.0152088.9431.0152088.7956.030425 1.5912.0882339 2.4021.1627749.8397.07302 1.6353.161251 2.3868.264696 1.5015.220581 2.9604.500488 4.3751.824515 1.43.35445 2.8584.76063 4.2732 1.2383zm-8.6347 26.68276c.5309-.7515 1.0649-1.5213 1.5471-2.3139.1665-.2988.4395-.524.7646-.6306s.6784-.0867.9895.0556c2.5601 1.2237 4.8842 2.8897 6.8654 4.9213.2317.2136.3809.5021.4212.8148.0403.3126-.0307.6295-.2006.895-.4123.6481-.8687 1.325-1.325 1.9883-.4564.6633-.9585 1.3113-1.4437 1.9305-.3545.4564-.7379.9279-1.1501 1.3995-.3529.4123-.7515.8687-1.1926 1.3555-.6192.6784-1.217 1.2961-1.8255 1.9h-.0153c-.5887.5903-1.2169 1.1653-1.8711 1.7388-.193.188-.4378.3138-.703.3613-.2652.0474-.5386.0143-.7848-.0951-1.9393-.8902-3.8064-1.9298-5.5845-3.1094.2358-.1765.4716-.3529.7074-.5446.5004-.3986 1.0025-.7956 1.4726-1.217 1.2016.7637 2.4465 1.4571 3.7285 2.0765.397-.3682.7804-.7363 1.179-1.1197.6176-.6085 1.1926-1.1926 1.7236-1.7829.3529-.3681.721-.8093 1.1348-1.2809.3529-.4274.7211-.8701 1.0756-1.3402.4853-.5902.9279-1.1942 1.3554-1.8133.2358-.3043.4564-.6481.6769-.9721-.6631-.6358-1.3724-1.2215-2.1221-1.7525-.7101-.5149-1.453-.9829-2.224-1.401-.3393.5157-.6923 1.0177-1.0467 1.503-.6176.8549-1.252 1.6505-1.9 2.4172-.2951.3377-.5751.6481-.8398.9432-.1186.1521-.251.2799-.3833.4259l-.0152.0153-.0137.0152-.0152.0137-.0153.0152-.0136.0152-.0153.0152-.0152.0137-.0289.0304v.0137c-1.4068 1.4818-2.9182 2.8605-4.5226 4.1256-2.4246 1.8617-5.0548 3.4389-7.839 4.7007-.2531.1135-.5351.1461-.8074.0933-.2723-.0529-.5216-.1885-.7139-.3884-.6495-.5598-1.2535-1.1349-1.8574-1.7099-.6085-.5887-1.2079-1.217-1.8255-1.9001-.4564-.4868-.8535-.9431-1.2079-1.3554-.3971-.4716-.7804-.9432-1.14856-1.3995-.4868-.6329-.95837-1.2672-1.42996-1.9305-.47158-.6633-.91274-1.3402-1.325-1.9883-.32555-.5157-.66332-1.0649-1.00255-1.6353-.30425-.5598-.61915-1.1197-.91275-1.6734-.38184-.7074-.73626-1.43-1.0755-2.151-.33924-.7211-.63283-1.4452-.94165-2.1967-.55982-1.3691-1.04661-2.7687-1.47408-4.1987-.42747-1.4299-.780399-2.8721-1.064873-4.331-.055378-.2687-.025499-.548.085496-.7989.110996-.2509.297543-.4609.533627-.6006 1.71531-1.2193 3.52296-2.3031 5.40653-3.2418.07302.7074.16275 1.3996.27988 2.0917.02891.2358.07303.4716.11714.7074-1.25043.654-2.46046 1.3825-3.62359 2.1815.2358 1.1044.51569 2.1799.82451 3.2265.39857 1.3555.87021 2.6805 1.38591 3.9553.27991.6922.5735 1.3843.89752 2.0765.32403.6922.64955 1.3691 1.00248 2.0187.27991.5461.57507 1.0649.87019 1.5912.2936.4868.60849 1.0025.94164 1.5471.41379.6481.82599 1.2824 1.25349 1.8712.4275.5887.8839 1.217 1.3554 1.8133.3682.4701.7211.9127 1.0893 1.3402.3985.4716.7819.9128 1.1196 1.2809.5461.5903 1.1197 1.179 1.7388 1.7829.3834.3834.7819.7515 1.1638 1.106 2.2168-1.0664 4.3198-2.3549 6.2766-3.8458 2.868-2.1748 5.4042-4.7555 7.5287-7.661zm16.2227-13.8434c.2353.1413.4219.3509.5349.6009.1131.2501.1473.5287.0979.7986-.2951 1.4589-.6481 2.9026-1.0755 4.331-.4275 1.4285-.9128 2.8296-1.4589 4.1987-.0554.1366-.1353.2619-.2358.3697-.2312.2679-.5585.4342-.9112.4626-.3528.0285-.7025-.0831-.9736-.3105-.9956-.8666-2.0492-1.6641-3.1536-2.3869-1.0851-.7098-2.2176-1.3446-3.3893-1.9-.3074-.1386-.5518-.3872-.6852-.6968s-.1462-.658-.0359-.9766c.4407-1.2398.8094-2.504 1.1044-3.7864.1324-.5005.2358-1.0025.3392-1.5212.3393.1323.6634.2662 1.0026.4122.5005.2221 1.0009.4564 1.5014.6937-.073.353-.1521.6922-.2357 1.0314-.2343.9873-.5005 1.9777-.8093 2.9467.9127.4716 1.8117 1.001 2.6804 1.5608.6632.4427 1.3265.9127 1.9609 1.3995.2647-.7362.5157-1.4877.7362-2.2529.3241-1.0466.5888-2.1298.8398-3.2266-1.9334-1.322-3.9913-2.4521-6.1443-3.3741-1.3261-.5731-2.6837-1.0704-4.0663-1.4893-1.2634-.3816-2.5474-.6914-3.8458-.928-.9127-.1612-1.8559-.2936-2.8143-.397-.9584-.1035-1.9-.1628-2.8432-.1917l-.5294-.0152h-1.0314l-.5157.0152c-.9432.0289-1.9016.0882-2.8447.1917-.9432.1034-1.9001.2358-2.828.397-1.2824.2358-2.5634.5598-3.8458.928-.4868.1521-.972.3042-1.4588.4716-.0442-.2799-.0883-.5446-.1172-.8246-.0882-.6328-.1521-1.2519-.1916-1.8863 3.9751-1.31426 8.1354-1.98196 12.3221-1.97763 5.1788.0071 10.3071 1.01759 15.1015 2.97553 2.765 1.1522 5.3898 2.6154 7.8237 4.3615zm-24.5469 11.6543c-.2206-.2799-.4123-.5309-.5887-.7515-1.402-1.9193-2.5924-3.9845-3.5506-6.1595-.1324-.2937-.2662-.5888-.3834-.8839-.1171-.2951-.2069-.5446-.3042-.8245-.0422-.0973-.0718-.1995-.0883-.3043-.0314-.1732-.028-.351.0101-.5229.038-.172.1098-.3346.2114-.4784.1015-.1439.2306-.2661.3799-.3596.1492-.0934.3156-.1562.4894-.1847.2799-.0593.6084-.1034.9431-.1521l.9569-.1339c.5902-.0578 1.179-.1019 1.7829-.1521s1.217-.0441 1.7692-.0441 1.1485.0137 1.7814.0441c.6085.0441 1.1942.0883 1.7692.1521l.9568.1339c.3545.0441.6633.0883.9585.1521.0752.0122.149.0315.2205.0579.3334.1203.6058.3676.7577.6879.1518.3203.1709.6876.0531 1.0219-.1186.3043-.2358.6177-.3544.9128-.1187.2951-.2358.5902-.3682.8838-.4786 1.0842-1.0148 2.1419-1.6064 3.1688-.5943 1.0342-1.2485 2.0329-1.9594 2.9908-.221.2931-.4122.5436-.5735.7515-.251.3042-.4427.5598-.6085.7363-.0519.0658-.1116.1251-.1779.1764-.1338.1128-.2888.1977-.4557.2499-.167.0523-.3427.0707-.5169.0543-.1742-.0165-.3434-.0674-.4977-.1499-.1542-.0826-.2905-.195-.4009-.3307-.2205-.251-.4122-.4868-.6085-.7363z" fill="#bbc3cf"/></g><g fill="#bbc3cf"><path d="m61.9898 19.1519c.9426-1.4661 2.6007-2.1992 4.9746-2.1992v3.1156c-.2793-.0524-.5324-.0785-.7593-.0785-1.2742 0-2.2691.3752-2.9847 1.1258-.7157.7331-1.0735 1.7978-1.0735 3.1942v6.7811h-3.2727v-13.9811h3.1156z"/><path d="m82.7561 24.1789c0 .2269-.0175.5498-.0524.9687h-10.9702c.192 1.0298.6895 1.8502 1.4924 2.4611.8204.5934 1.8327.8902 3.0371.8902 1.536 0 2.8014-.5062 3.7964-1.5186l1.7541 2.016c-.6283.7506-1.4225 1.3178-2.3825 1.7018s-2.0422.576-3.2465.576c-1.5361 0-2.8888-.3054-4.0582-.9163-1.1695-.6109-2.0771-1.4575-2.7229-2.5397-.6284-1.0996-.9426-2.3389-.9426-3.7178 0-1.3614.3055-2.5833.9164-3.6654.6283-1.0997 1.4923-1.955 2.592-2.5659 1.0996-.6109 2.3389-.9163 3.7178-.9163 1.3614 0 2.5745.3054 3.6393.9163 1.0821.5935 1.92 1.44 2.5134 2.5397.6109 1.0822.9164 2.3389.9164 3.7702zm-7.0691-4.6081c-1.0473 0-1.9375.3142-2.6706.9426-.7156.6109-1.152 1.4313-1.309 2.4611h7.9331c-.1397-1.0124-.5673-1.8327-1.283-2.4611-.7156-.6284-1.6058-.9426-2.6705-.9426z"/><path d="m90.2197 31.2741c-1.1345 0-2.2429-.1483-3.325-.4451-1.0822-.2967-1.9462-.672-2.592-1.1258l1.2567-2.4873c.6283.419 1.3789.7593 2.2516 1.0211.8902.2444 1.7629.3666 2.6182.3666 1.9549 0 2.9324-.5149 2.9324-1.5447 0-.4888-.2531-.8291-.7593-1.0211-.4887-.192-1.2829-.3753-2.3826-.5499-1.152-.1745-2.0945-.3752-2.8276-.6021-.7156-.2269-1.344-.6197-1.8851-1.1782-.5236-.576-.7854-1.3702-.7854-2.3826 0-1.3265.5498-2.3825 1.6494-3.168 1.1171-.8029 2.6182-1.2043 4.5033-1.2043.96 0 1.92.1134 2.88.3403.96.2095 1.7454.4975 2.3564.864l-1.2568 2.4873c-1.1869-.6982-2.5222-1.0473-4.0058-1.0473-.96 0-1.6931.1484-2.1993.4451-.4887.2793-.7331.6546-.7331 1.1258 0 .5237.2619.899.7855 1.1259.5411.2094 1.3702.4101 2.4873.6021 1.1171.1746 2.0334.3753 2.7491.6022.7156.2269 1.3265.6109 1.8327 1.152.5236.5411.7854 1.3091.7854 2.304 0 1.3091-.5672 2.3564-1.7018 3.1418-1.1345.7855-2.6792 1.1782-4.6342 1.1782z"/><path d="m112.517 24.1789c0 .2269-.017.5498-.052.9687h-10.97c.192 1.0298.689 1.8502 1.492 2.4611.821.5934 1.833.8902 3.037.8902 1.536 0 2.802-.5062 3.797-1.5186l1.754 2.016c-.628.7506-1.423 1.3178-2.383 1.7018s-2.042.576-3.246.576c-1.536 0-2.889-.3054-4.058-.9163-1.17-.6109-2.0775-1.4575-2.7233-2.5397-.6283-1.0996-.9425-2.3389-.9425-3.7178 0-1.3614.3054-2.5833.9163-3.6654.6284-1.0997 1.4925-1.955 2.5925-2.5659 1.099-.6109 2.338-.9163 3.717-.9163 1.362 0 2.575.3054 3.64.9163 1.082.5935 1.92 1.44 2.513 2.5397.611 1.0822.916 2.3389.916 3.7702zm-7.069-4.6081c-1.047 0-1.937.3142-2.67.9426-.716.6109-1.152 1.4313-1.309 2.4611h7.933c-.14-1.0124-.567-1.8327-1.283-2.4611s-1.606-.9426-2.671-.9426z"/><path d="m122.076 31.2741c-1.449 0-2.749-.3054-3.901-.9163s-2.051-1.4575-2.697-2.5397c-.646-1.0996-.969-2.3389-.969-3.7178s.323-2.6094.969-3.6916 1.536-1.9288 2.67-2.5397c1.152-.6109 2.461-.9163 3.928-.9163 1.379 0 2.583.2792 3.613.8378 1.047.5585 1.832 1.3614 2.356 2.4087l-2.513 1.4662c-.402-.6458-.908-1.1258-1.519-1.44-.593-.3316-1.248-.4975-1.964-.4975-1.221 0-2.234.4015-3.037 1.2044-.803.7855-1.204 1.8415-1.204 3.168 0 1.3266.393 2.3913 1.178 3.1942.803.7854 1.824 1.1782 3.063 1.1782.716 0 1.371-.1571 1.964-.4713.611-.3316 1.117-.8204 1.519-1.4662l2.513 1.4662c-.541 1.0473-1.335 1.8589-2.382 2.4349-1.03.5586-2.226.8378-3.587.8378z"/><path d="m144.41 17.1098v13.9811h-3.115v-1.7804c-.524.6284-1.179 1.1171-1.964 1.4662-.786.3316-1.632.4974-2.54.4974-1.867 0-3.342-.5149-4.424-1.5447-1.065-1.0473-1.598-2.592-1.598-4.6342v-7.9854h3.273v7.5403c0 1.2568.279 2.1993.838 2.8277.576.6109 1.388.9163 2.435.9163 1.169 0 2.094-.3578 2.775-1.0734.698-.7331 1.047-1.7804 1.047-3.1418v-7.0691z"/><path d="m151.811 19.1519c.942-1.4661 2.601-2.1992 4.974-2.1992v3.1156c-.279-.0524-.532-.0785-.759-.0785-1.274 0-2.269.3752-2.985 1.1258-.715.7331-1.073 1.7978-1.073 3.1942v6.7811h-3.273v-13.9811h3.116z"/><path d="m167.312 16.9527c1.361 0 2.574.2967 3.639.8901 1.082.5935 1.928 1.4313 2.539 2.5135s.917 2.3302.917 3.744-.306 2.6706-.917 3.7702c-.611 1.0822-1.457 1.92-2.539 2.5134-1.065.5935-2.278.8902-3.639.8902-.96 0-1.842-.1658-2.645-.4974-.785-.3317-1.449-.8291-1.99-1.4924v1.8066h-3.115v-19.427h3.272v7.1477c.559-.6109 1.214-1.0735 1.964-1.3877.768-.3141 1.606-.4712 2.514-.4712zm-.367 11.52c1.204 0 2.19-.4015 2.959-1.2044.785-.8029 1.178-1.8589 1.178-3.168s-.393-2.3651-1.178-3.168c-.769-.8029-1.755-1.2044-2.959-1.2044-.786 0-1.492.1833-2.121.5499-.628.3491-1.126.8552-1.492 1.5185-.367.6633-.55 1.4313-.55 2.304s.183 1.6407.55 2.304c.366.6633.864 1.1782 1.492 1.5447.629.3491 1.335.5237 2.121.5237z"/></g></svg>