<svg fill="none" height="44" viewBox="0 0 155 44" width="155" xmlns="http://www.w3.org/2000/svg" xmlns:xlink="http://www.w3.org/1999/xlink"><clipPath id="a"><path d="m0 0h39.2425v43.6364h-39.2425z"/></clipPath><g fill="#bbc3cf"><path d="m52.4815 14.5484c0 7.8545 8.4436 8.9149 8.4436 14.5701 0 1.9637-.864 2.6706-2.2385 2.6706-1.3746 0-2.2386-.7069-2.2386-2.6706v-1.9636h-4.0844v1.6887c0 4.3986 2.1993 6.912 6.4408 6.912 4.2414 0 6.4407-2.5134 6.4407-6.912 0-7.8545-8.4436-8.9149-8.4436-14.5702 0-1.9636.7854-2.7098 2.16-2.7098 1.3745 0 2.16.7462 2.16 2.7098v1.139h4.0843v-.864c0-4.3986-2.16-6.91205-6.3622-6.91205-4.2021 0-6.3621 2.51345-6.3621 6.91205z"/><path d="m71.4968 35.4414h4.32v-9.1112l5.4589-18.37967h-4.1236l-3.2989 12.52797-3.2989-12.52797h-4.5164l5.4589 18.37967z"/><path d="m88.9922 7.95053h-6.0087v27.49087h3.7702v-19.44l3.2203 19.44h4.0844l2.9847-19.7149v19.7149h4.0839v-27.49087h-6.0082l-2.9455 19.51857z"/><path d="m103.013 11.8778h4.517v23.5636h4.32v-23.5636h4.516v-3.92727h-13.353z"/><path d="m131.7 35.4414c-.432-1.021-.471-2.0029-.471-3.3381v-4.2415c0-2.8669-.707-4.9484-2.867-5.8516 1.924-.9033 2.827-2.7491 2.827-5.5768v-2.16c0-4.2414-1.924-6.32287-6.401-6.32287h-6.519v27.49087h4.32v-11.1927h1.492c1.964 0 2.828.9426 2.828 3.4953v4.32c0 2.2385.157 2.6705.392 3.3774zm-7.03-23.5636c1.532 0 2.199.864 2.199 2.8276v2.7099c0 2.1992-.982 2.9061-2.592 2.9061h-1.688v-8.4436z"/><path d="m134.07 35.4414h4.32v-27.49087h-4.32z"/><path d="m149.992 25.1913v3.9272c0 1.9637-.864 2.6706-2.239 2.6706-1.374 0-2.238-.7069-2.238-2.6706v-14.8451c0-1.9636.864-2.7098 2.238-2.7098 1.375 0 2.239.7462 2.239 2.7098v2.9455h4.084v-2.6705c0-4.3986-2.199-6.91205-6.44-6.91205-4.242 0-6.441 2.51345-6.441 6.91205v14.2952c0 4.3986 2.199 6.912 6.441 6.912 4.241 0 6.44-2.5134 6.44-6.912v-3.6523z"/></g><g clip-path="url(#a)"><path clip-rule="evenodd" d="m14.8435 13.8351-2.3606 4.0812-2.2462-3.8963 2.3489-4.08115h16.407l3.4836-6.04249h-23.37725l-4.60673 7.99064c3.45579 5.97 6.90628 11.9401 10.35128 17.9102h6.9674c-1.75-3.0291-3.4989-6.0577-5.2469-9.0858l-.4844-.8383h15.968l6.8675 11.8913-6.8675 11.8721h-25.19474l-6.7970501-11.9866 3.4132201-5.928 2.26078 3.8947-1.22289 2.1331 4.60672 7.9906h20.67456l4.6214-7.9906-4.6067-7.9906h-6.9673c1.4778 2.574 2.9566 5.1475 4.4364 7.7205l.1673.2657-1.123 1.9481h-13.719c-4.1526-7.1807-8.29985-14.3561-12.441708-21.5261l-.15562252-.2847 6.85289052-11.89126699h32.38814l-7.9847 13.84376699z" fill="#bbc3cf" fill-rule="evenodd"/></g></svg>