<svg fill="none" height="36" viewBox="0 0 57 36" width="57" xmlns="http://www.w3.org/2000/svg" xmlns:xlink="http://www.w3.org/1999/xlink"><linearGradient id="a" gradientUnits="userSpaceOnUse" x1="4.04784" x2="18.6613" y1="16.2601" y2="27.2053"><stop offset="0" stop-color="#7b61ff"/><stop offset="1" stop-color="#5d3ff8"/></linearGradient><linearGradient id="b" gradientUnits="userSpaceOnUse" x1="31.7666" x2="44.0257" y1="35.8012" y2="1.46763"><stop offset="0" stop-color="#7b61ff"/><stop offset="1" stop-color="#7b61ff"/></linearGradient><path d="m24.9595 16.0273-9.097 19.1586-.1488.3156h-.006c-.0059.0126-.0125.0185-.0125.0311v.006c0 .0059 0 .0059-.006.0125s-.0125.0185-.0125.0245v.0066l-.006.006-.7112-.4949c-.0034-.0033-.0079-.0054-.0126-.006-.0031-.0034-.0073-.0058-.0119-.0065v-.006l-6.51454-4.5207-6.62986-4.602c-.62791-.4369-1.123312-1.0383-1.431806-1.7383-.3084963-.6999-.4181557-1.4713-.3169418-2.2296.1012138-.7582.4093908-1.4738.8906898-2.0684.481298-.5945 1.117108-1.0449 1.837638-1.3018l13.31472-4.7371c.3904-.1415.7947-.2417 1.206-.2988v-.006c.0186-.0065.0245-.0065.0371 0 .01-.0037.0204-.0059.0311-.0065 1.2969-.187 2.6201.0212 3.7969.5976l3.0427 1.4906.1237.0598.526.2534z" fill="url(#a)"/><path d="m24.9595 16.0274-9.097 19.1586-.1488.3156h-.006c-.006.0125-.0126.0185-.0126.031v.006c0 .006 0 .006-.0059.0126-.006.0065-.0126.0185-.0126.0245v.0065l-.006.006-.7112-.4948c-.0033-.0035-.0078-.0055-.0125-.006-.0031-.0036-.0073-.0059-.012-.0066v-.006l-6.51449-4.5207.30301-.2857 15.47288-14.6134.1237.0598.5259.2534z" fill="#000" opacity=".0225"/><path d="m24.9595 16.0274-9.2434 19.4742c.0055.0007.0106.0036.0141.0079.0036.0043.0053.0099.0049.0154-.0004.0057-.0028.0109-.0069.0147-.0041.0039-.0095.006-.0151.006s-.011-.0021-.0151-.006c-.0041-.0038-.0066-.009-.007-.0147-.0004-.0055.0014-.0111.0049-.0154.0036-.0043.0086-.0072.0142-.0079.0992-.2534.4184-1.0388.915-2.2323.6312-1.4661 1.4906-3.5746 2.5855-6.0794s2.3745-5.4178 3.7844-8.528c.4393-.9563.8786-1.9484 1.3298-2.9441z" fill="#000" opacity=".09"/><path d="m55.3367 19.7998c-.0058.0073-.0101.0156-.0126.0245-.0079.0178-.0181.0345-.0304.0496-.0497.1052-.1052.2104-.1614.309l-5.7083 9.9445c-.9543 1.6593-2.3291 3.0377-3.9859 3.9963-1.6568.9587-3.537 1.4636-5.4511 1.4639h-24.3165l.006-.006v-.0059c0-.006.0066-.0126.0126-.0245.0059-.012.0059-.0066.0059-.0126.0015-.0131.0058-.0257.0126-.037h.006l13.9332-29.77729c.6793-1.45033 1.6991-2.71502 2.9724-3.68641 1.2734-.97137 2.7625-1.620664 4.3408-1.892585 1.5783-.27192 3.1989-.1584151 4.7239.33085 1.525.489266 2.9092 1.339795 4.0346 2.479185l4.2608 4.3169c.0163.01864.035.03508.0555.04901.0018 0 .0034.00071.0047.00191.0012.00125.0019.00293.0019.00466l.006.00598 3.9332 3.98279c1.0833 1.0955 1.7964 2.5026 2.0396 4.0239.2432 1.5214.0042 3.0807-.6835 4.4593z" fill="url(#b)"/><path d="m55.324 19.8243c-.0598.1237-.1237.2391-.1918.3586l-5.7083 9.9445c-.9543 1.6593-2.3291 3.0377-3.9859 3.9964-1.6568.9586-3.537 1.4635-5.4512 1.4638h-16.8893s.6312-.0556 1.7333-.1195c1.102-.064 2.6649-.1668 4.5511-.2349 1.8863-.0801 4.088-.1482 6.4446-.1918 1.175-.0186 2.3907-.0491 3.6302-.0556 1.1907.0391 2.3797-.1197 3.5184-.4698 2.2471-.6801 4.203-2.0903 5.5583-4.0073.1667-.2289.309-.4638.4572-.6993.1488-.2473.2988-.4948.4453-.7357.2988-.4823.5875-.9527.8719-1.4164.5571-.921 1.1009-1.7871 1.6083-2.5849.9957-1.6018 1.8737-2.9065 2.4672-3.834.2988-.4638.5504-.8164.7112-1.0639.1183-.1858.199-.3006.2295-.3502z" fill="#000" opacity=".09"/><g fill="#fff"><path d="m15.7078 35.5016h.006c.0056.0008.0106.0036.0142.0079.0035.0044.0052.0099.0049.0155-.0004.0056-.0029.0108-.007.0147-.0041.0038-.0095.0059-.0151.0059s-.011-.0021-.0151-.0059c-.0041-.0039-.0066-.0091-.007-.0147s.0014-.0111.005-.0155c.0035-.0043.0086-.0071.0141-.0079z" opacity=".16"/><path d="m49.9812 7.27047c-.2038-.1793-.8289-.74827-1.775-1.63284-.581-.54446-1.2862-1.20607-2.096-1.9669-.1985-.18527-.4184-.40163-.6186-.57495-.2287-.18527-.4638-.37692-.7053-.57495-.2393-.19385-.4913-.37154-.7542-.53191-.2627-.18614-.543-.34627-.8367-.47813-1.2583-.643624-2.6443-.998484-4.0569-1.03874-1.5643-.036144-3.1145.303034-4.5208.98913-1.4901.73184-2.7613 1.84307-3.6857 3.22199-.4633.73639-.8686 1.50768-1.2121 2.307-.3777.82238-.7608 1.65133-1.1445 2.47371-.777 1.64472-1.5581 3.29012-2.3189 4.91042-.7609 1.6202-1.5402 3.2094-2.2819 4.7496-1.4846 3.0731-2.8945 5.9306-4.1239 8.3672-1.2186 2.4427-2.2818 4.4592-3.0056 5.8816-.5977 1.1439-1.0017 1.8922-1.132 2.1271l13.9333-29.7773c.6794-1.45031 1.6993-2.71494 2.9728-3.68621 1.2735-.97128 2.7628-1.620429 4.3411-1.892175 1.5784-.271747 3.199-.1580424 4.7239.331429 1.525.489471 2.9092 1.340216 4.0345 2.479786z" opacity=".16"/><path d="m53.2715 18.3649-.0926.0926-.1303.3711c-.0189.045-.0415.0884-.0675.1297l-5.7023 9.9385c-.635 1.1023-1.5126 2.0455-2.5664 2.7582l-10.1052-28.00876c1.2144-.77236 2.6248-1.18016 4.064-1.175.9856.00057 1.9613.19716 2.8702.57834.9088.38118 1.7328.93934 2.4239 1.64197l3.6063 3.65471v.03706l.6491.62455c.0371.03108.0807.08069.1363.13029l3.865 3.91404c.6765.6851 1.1367 1.554 1.3233 2.4986s.0914 1.9231-.2738 2.8141z" opacity=".04"/></g><g fill="#000"><path d="m14.9352 35.0807v-.0059c.006 0 .006.0059.0119.0125-.0031-.0035-.0073-.0058-.0119-.0066z" opacity=".09"/><path d="m16.0847 13.8752c.3905-.1416.7948-.2417 1.2061-.2989-.0681.0186-.1977.0496-.377.0992-.4088.1241-.8083.2768-1.1954.4572-1.0327.4184-2.4863 1.0579-4.2548 1.7625-1.76844.7047-3.83868 1.5235-6.06499 2.3602-.55702.2104-1.11944.4184-1.69439.6371-.27851.1112-.59407.2164-.84748.3275l-.36517.1608-.34006.2164c-.65991.4758-1.14309 1.1573-1.373615 1.9375-.230527.7801-.195359 1.6148.099989 2.3728.107363.2462.239966.4805.395666.6993.06619.1097.14657.2101.23906.2988.08057.1042.17192.1995.27253.2845l.36458.291.34664.2475c.24743.1793.50084.3586.74827.5379.49487.3586.98914.7112 1.47145 1.0572 1.43441 1.0328 2.78931 2.0285 4.00794 2.9501.42673.309.83666.6186 1.22455.915 1.52103 1.1445 2.76423 2.1403 3.64223 2.8144.7668.5976 1.2371.9892 1.3423 1.0758l-6.51455-4.5207-6.62982-4.602c-.62902-.4367-1.125377-1.0385-1.434492-1.739-.3091135-.7006-.4189911-1.4729-.3175442-2.2319.1014472-.759.4102792-1.4753.8925352-2.0701.482251-.5948 1.119231-1.0451 1.840861-1.3013z" opacity=".09"/><path d="m17.2908 13.5723c.0185-.0066.0245-.0066.037 0-.0121.003-.0245.005-.037.006z" opacity=".09"/></g></svg>