<svg fill="none" height="44" viewBox="0 0 186 44" width="186" xmlns="http://www.w3.org/2000/svg" xmlns:xlink="http://www.w3.org/1999/xlink"><clipPath id="a"><path d="m0 0h34.9091v43.6364h-34.9091z"/></clipPath><g clip-path="url(#a)"><path clip-rule="evenodd" d="m4.48853 40.8485 3.82647-2.1939 1.5363-.8816 1.5083-.8696 2.3665-1.3562 3.7585-2.146 3.7625 2.146 2.3626 1.3562 1.5081.8696 1.5404.8816 3.7464 2.162 1.1391.6462 1.1111.6342 2.2543 1.2924v-20.7663l-4.5045-2.5888v15.6405l-3.0486-1.7551-4.4925-2.5689-1.7128-.9972-1.4117-.7978v-25.78843h-4.5048v26.40273l-3.1286 1.799-4.48844 2.5888-3.12863 1.7831v-16.2749l-4.48865207 2.5729v20.7823l2.23825207-1.2924 1.12325-.6342zm22.86357-10.5109v-31.229324h-4.4925v28.660524zm-15.2424-1.9705v-19.94463h-4.48863v22.53343z" fill="#bbc3cf" fill-rule="evenodd"/></g><g fill="#bbc3cf"><path d="m53.9411 31.091h3.9236l3.6167-12.4494h.1488l3.626 12.4494h3.9236l5.4483-19.0414h-4.3977l-3.1519 13.2583h-.1673l-3.468-13.2583h-3.7655l-3.4773 13.2304h-.158l-3.1519-13.2304h-4.3977z"/><path d="m76.7828 31.091h12.8678v-3.3193h-8.8419v-4.5464h8.1446v-3.3193h-8.1446v-4.5371h8.8047v-3.3193h-12.8306z"/><path d="m92.8141 31.091h12.1889v-3.3193h-8.1631v-15.7221h-4.0258z"/><path d="m104.125 12.0496 6.945 12.31v6.7314h3.998v-6.7314l6.945-12.31h-4.509l-4.342 8.2005h-.186l-4.342-8.2005z"/><path d="m124.688 15.3689h5.83v15.7221h3.979v-15.7221h5.83v-3.3193h-15.639z"/><path d="m146.928 12.0496h-4.026v19.0414h4.026z"/><path d="m167.041 18.716c-.53-4.3978-3.859-6.9267-8.266-6.9267-5.03 0-8.869 3.5517-8.869 9.781 0 6.2107 3.774 9.781 8.869 9.781 4.882 0 7.829-3.2448 8.266-6.75l-4.072-.0186c-.382 2.0362-1.981 3.2076-4.129 3.2076-2.891 0-4.853-2.1477-4.853-6.22 0-3.9607 1.934-6.22 4.881-6.22 2.204 0 3.794 1.2737 4.101 3.3657z"/><path d="m180.257 17.5259h3.859c-.056-3.3936-2.845-5.7366-7.085-5.7366-4.175 0-7.233 2.3058-7.215 5.7645-.009 2.8078 1.971 4.4163 5.188 5.188l2.074.5206c2.073.5021 3.226 1.0972 3.235 2.3802-.009 1.3946-1.329 2.343-3.375 2.343-2.092 0-3.598-.967-3.728-2.8729h-3.896c.102 4.1188 3.05 6.2479 7.671 6.2479 4.648 0 7.382-2.2221 7.391-5.7087-.009-3.1704-2.399-4.8533-5.709-5.5971l-1.71-.4091c-1.655-.3812-3.041-.9948-3.013-2.3616 0-1.2272 1.088-2.1291 3.059-2.1291 1.925 0 3.106.874 3.254 2.3709z"/></g></svg>