<svg fill="none" height="48" viewBox="0 0 183 48" width="183" xmlns="http://www.w3.org/2000/svg" xmlns:xlink="http://www.w3.org/1999/xlink"><clipPath id="a"><path d="m0 0h48.142v48h-48.142z"/></clipPath><g fill="#bbc3cf"><g clip-path="url(#a)" clip-rule="evenodd" fill-rule="evenodd"><path d="m26.7091 47.0853c5.1949-.6065 10.0331-2.9484 13.7314-6.6467s6.0401-8.5365 6.6466-13.7313h-8.7307c-.5507 2.883-1.956 5.5338-4.0332 7.6076-2.0771 2.0738-4.7301 3.4747-7.6141 4.0207z"/><path d="m34.4645 3.24608.055-.03597c5.6494-3.2460879 10.2174-4.200631 12.3442-2.07193 6.0168 6.01492-10.9504 24.72442-15.9767 29.75072-3.0227 3.0316-6.226 5.8776-9.5924 8.5224v7.6683c-2.7065-.3073-5.3362-1.0962-7.7649-2.3295l-.0549.036c-5.64938 3.2461-10.21543 4.2006-12.34414 2.0832-2.91655-2.9165.49613-9.6303 2.1097-12.401-1.22563-2.4317-2.01409-5.06-2.329416-7.7648h8.749596c.38266 2.0307 1.19196 3.9572 2.37446 5.6519s2.7112 3.1192 4.4852 4.1791c-1.0095.733-2.036 1.4299-3.1003 2.0833-1.5587.9905-3.1722 1.926-4.84259 2.7688-1.30729-1.1577-2.47658-2.4623-3.4847-3.8881-1.76129 3.3938-2.34838 5.888-1.41281 6.8179 4.01688 3.9771 22.0843-12.6188 25.0558-15.5903 3.1636-3.1594 6.1227-6.517 8.8594-10.0526-.9018-2.3047-2.3749-4.3422-4.2808-5.9208-1.906-1.5787-4.1822-2.6466-6.6145-3.10345v-8.749696c2.707.304566 5.3372 1.093616 7.7648 2.329466zm8.4372 7.24592c1.7613-3.3938 2.3483-5.88802 1.4128-6.81791-.9356-.92988-3.4089-.32952-6.8046 1.43178 2.0875 1.48148 3.9103 3.30429 5.3918 5.39183z"/><path d="m21.2984.916626c-5.195.606904-10.0332 2.949214-13.73145 6.647804-3.69825 3.69857-6.04014 8.53697-6.646563 13.73207h8.749693c.54322-2.8834 1.94362-5.5359 4.01822-7.6108 2.0745-2.0749 4.7268-3.4757 7.6101-4.01943z"/></g><path d="m87.6136 29.5568c0 1.0114-.1931 1.966-.5795 2.8637-.375.8863-.8977 1.6648-1.5682 2.3352-.6591.6591-1.4375 1.1818-2.3352 1.5682-.8864.375-1.8352.5625-2.8466.5625-.9091 0-1.7841-.1591-2.625-.4773-.8296-.3182-1.5796-.7841-2.25-1.3977-.6705.6136-1.4261 1.0795-2.2671 1.3977-.8409.3182-1.7159.4773-2.625.4773-1.0113 0-1.9659-.1875-2.8636-.5625-.8864-.3864-1.6648-.9091-2.3352-1.5682-.6591-.6704-1.1818-1.4489-1.5682-2.3352-.375-.8977-.5625-1.8523-.5625-2.8637v-17.4545h4.892v17.4545c0 .341.0625.6648.1875.9716.125.2955.2955.5569.5114.7841.2273.2159.4886.3864.7841.5114s.6136.1875.9545.1875c.341 0 .6591-.0625.9546-.1875.2954-.125.5511-.2955.767-.5114.2273-.2272.4034-.4886.5284-.7841.125-.3068.1875-.6306.1875-.9716v-17.4545h4.8921v17.4545c0 .341.0625.6648.1875.9716.125.2955.2954.5569.5114.7841.2272.2159.4886.3864.784.5114.2955.125.6137.1875.9546.1875s.6591-.0625.9545-.1875c.2955-.125.5512-.2955.7671-.5114.2273-.2272.4034-.4886.5284-.7841.1364-.3068.2045-.6306.2045-.9716v-17.4545h4.875z"/><path d="m96.9886 13.3296c0 .4318-.0852.8352-.2556 1.2102-.1591.375-.3807.7045-.6648.9886-.2841.2728-.6193.4943-1.0057.6648-.375.1591-.7784.2386-1.2102.2386s-.8409-.0795-1.2273-.2386c-.375-.1705-.7045-.392-.9886-.6648-.2728-.2841-.4944-.6136-.6648-.9886-.1591-.375-.2386-.7784-.2386-1.2102 0-.4205.0795-.8182.2386-1.1932.1704-.3864.392-.7159.6648-.9887.2841-.284.6136-.5056.9886-.6647.3864-.1705.7955-.2557 1.2273-.2557s.8352.0852 1.2102.2557c.3864.1591.7216.3807 1.0057.6647.2841.2728.5057.6023.6648.9887.1704.375.2556.7727.2556 1.1932zm-.8011 23.2159h-4.6875v-18.2557h4.6875z"/><path d="m109.773 36.5455h-10.6366v-4.6364h10.6366c.318 0 .591-.1136.818-.3409s.341-.5.341-.8182c0-.3295-.114-.5454-.341-.6477s-.5-.1534-.818-.1534h-4.841c-.807 0-1.563-.1534-2.267-.4602-.705-.3069-1.318-.7216-1.841-1.2444-.523-.534-.9376-1.1534-1.2445-1.8579-.2954-.7046-.4431-1.4602-.4431-2.2671 0-.8068.1477-1.5625.4431-2.267.3069-.7046.7215-1.3182 1.2445-1.8409s1.136-.9318 1.841-1.2273c.704-.3068 1.46-.4602 2.267-.4602h9.426v4.6363h-9.426c-.318 0-.591.1137-.818.341-.228.2272-.341.5-.341.8181 0 .3296.113.6137.341.8523.227.2273.5.3409.818.3409h4.841c.795 0 1.545.1364 2.25.4091.704.2614 1.318.6307 1.841 1.108.522.4772.937 1.0511 1.244 1.7216.307.6704.46 1.4034.46 2.1988 0 .8068-.153 1.5625-.46 2.2671-.307.6932-.722 1.3068-1.244 1.8409-.523.5227-1.137.9375-1.841 1.2443-.705.2955-1.455.4432-2.25.4432z"/><path d="m122.71 36.5455h-4.653v-25.5171h4.653v8.0625c.557-.4204 1.131-.7159 1.722-.8863.591-.1819 1.193-.2728 1.807-.2728 1.125 0 2.181.2159 3.17.6478.989.4204 1.847 1.0056 2.574 1.7556.739.7387 1.318 1.608 1.739 2.608.431.9886.647 2.0455.647 3.1705v10.4318h-4.687v-10.4318h.034c0-.4773-.091-.9262-.273-1.3466-.182-.4319-.432-.8069-.75-1.125-.318-.3182-.687-.5682-1.108-.75-.42-.1819-.869-.2728-1.346-.2728-.489 0-.949.0909-1.381.2728-.432.1818-.807.4318-1.125.75-.318.3181-.568.6931-.75 1.125-.182.4204-.273.8693-.273 1.3466z"/><path d="m144.955 32.0796c.181.0568.363.0966.545.1193.182.0114.364.017.545.017.455 0 .893-.0625 1.313-.1875s.812-.3011 1.176-.5284c.375-.2386.705-.5227.989-.8522.295-.341.534-.716.716-1.125l3.409 3.4261c-.432.6136-.932 1.1648-1.5 1.6534-.557.4886-1.165.9034-1.824 1.2443-.648.3409-1.335.5966-2.063.7671-.716.1818-1.454.2727-2.216.2727-1.284 0-2.494-.2386-3.63-.7159-1.125-.4773-2.114-1.1421-2.966-1.9943-.841-.8523-1.506-1.8637-1.994-3.0341-.489-1.1818-.733-2.4773-.733-3.8864 0-1.4432.244-2.7614.733-3.9545.488-1.1932 1.153-2.2103 1.994-3.0512.852-.8409 1.841-1.4943 2.966-1.9602 1.136-.4659 2.346-.6989 3.63-.6989.762 0 1.506.0909 2.233.2728.728.1818 1.415.4431 2.063.784.659.341 1.273.7614 1.841 1.2614.568.4886 1.068 1.0398 1.5 1.6534zm2.386-9.5966c-.216-.0796-.432-.1307-.648-.1534-.204-.0228-.42-.0341-.648-.0341-.636 0-1.238.1193-1.806.3579-.557.2273-1.046.5568-1.466.9887-.409.4318-.733.9545-.972 1.5681-.239.6023-.358 1.2841-.358 2.0455 0 .1705.006.3636.017.5796.023.2159.051.4375.085.6647.046.2159.097.4262.154.6307.057.2046.131.3864.221.5455z"/><path d="m160.722 36.5455h-4.688v-25.5171h4.688z"/><path d="m168.972 43.5h-4.688v-25.2102h1.125l1.858 2.1989c.421-.3978.881-.7728 1.381-1.125.5-.3523 1.017-.6535 1.551-.9035.545-.2613 1.108-.4659 1.687-.6136.58-.1477 1.165-.2216 1.756-.2216 1.284 0 2.489.233 3.614.6989 1.136.4545 2.125 1.1023 2.966 1.9432.852.8409 1.522 1.8579 2.011 3.0511.489 1.1818.733 2.4943.733 3.9375 0 1.5-.244 2.8523-.733 4.0568-.489 1.1932-1.159 2.2103-2.011 3.0512-.841.8295-1.83 1.4659-2.966 1.9091-1.125.4431-2.33.6647-3.614.6647-.409 0-.818-.0454-1.227-.1363-.398-.0909-.796-.2103-1.193-.358-.387-.1591-.773-.3352-1.16-.5284-.374-.1932-.738-.392-1.09-.5966zm9.323-16.2443c0-.7727-.125-1.4659-.375-2.0795-.238-.6137-.568-1.1307-.988-1.5512-.421-.4318-.915-.7613-1.483-.9886s-1.171-.3409-1.807-.3409-1.239.1136-1.807.3409c-.557.2273-1.045.5568-1.466.9886-.42.4205-.755.9375-1.005 1.5512-.239.6136-.358 1.3068-.358 2.0795 0 .7386.119 1.4148.358 2.0284.25.6137.585 1.1364 1.005 1.5682.421.4318.909.767 1.466 1.0057.568.2386 1.171.3579 1.807.3579s1.239-.1193 1.807-.3579c.568-.2387 1.062-.5739 1.483-1.0057.42-.4318.75-.9545.988-1.5682.25-.6136.375-1.2898.375-2.0284z"/></g></svg>