<svg fill="none" height="48" viewBox="0 0 184 48" width="184" xmlns="http://www.w3.org/2000/svg"><g fill="#bbc3cf"><path d="m75.0546 29.1709c0 2.2807-.5353 3.9564-1.6058 5.0269-1.0706 1.0706-2.7229 1.6058-4.9571 1.6058-2.2109 0-4.5615-.1163-7.0516-.349v-4.7128c1.8152.1164 3.6771.1746 5.5854.1746.5353 0 .9542-.1513 1.2567-.4538.3259-.3259.4888-.7564.4888-1.2917v-13.2654h-4.5382v-4.8873h10.8218z"/><path d="m90.7623 35.4546h-12.5672v-4.8873h3.1418v-14.6618h-3.1418v-4.8873h12.5672v4.8873h-3.1418v14.6618h3.1418z"/><path d="m114.847 34.9309c-5.446.5818-10.45.8727-15.011.8727-2.2808 0-3.9564-.5352-5.0269-1.6058-1.0706-1.0705-1.6059-2.7462-1.6059-5.0269v-11.1709c0-2.4436.547-4.2124 1.6408-5.3062 1.1171-1.1171 2.8974-1.6756 5.341-1.6756h12.567v4.8873h-11.171c-1.396 0-2.0941.6981-2.0941 2.0945v11.1709c0 .5353.1513.9658.4538 1.2917.3263.3025.7563.4538 1.2913.4538 2.677 0 5.12-.0582 7.331-.1746v-5.0618h-4.538v-4.1891h10.822z"/><path d="m139.29 34.9309c-5.446.5818-10.449.8727-15.011.8727-2.281 0-3.956-.5352-5.027-1.6058-1.07-1.0705-1.606-2.7462-1.606-5.0269v-11.1709c0-2.4436.547-4.2124 1.641-5.3062 1.117-1.1171 2.898-1.6756 5.341-1.6756h12.568v4.8873h-11.171c-1.397 0-2.095.6981-2.095 2.0945v11.1709c0 .5353.151.9658.454 1.2917.326.3025.756.4538 1.292.4538 2.676 0 5.12-.0582 7.33-.1746v-5.0618h-4.538v-4.1891h10.822z"/><path d="m149.071 30.5673h12.742v4.8873h-19.025v-24.4364h6.283z"/><path d="m183.64 35.4546h-19.375v-24.4364h19.375v4.8873h-13.091v4.7127h10.298v4.8873h-10.298v5.0618h13.091z"/><path clip-rule="evenodd" d="m2.65618 8.33013c.70864.00307 1.38735.28596 1.88845.78706.50109.50109.784 1.17981.78708 1.88851.01877.6948.30801 1.3548.80608 1.8396s1.16565.7561 1.86071.7561c.69505 0 1.36264-.2713 1.86071-.7561.49809-.4848.78729-1.1448.80609-1.8396v-8.33017c.0031-.70865.2859-1.38741.787-1.8885.5011-.501095 1.1799-.78395778 1.8885-.78703.7059.00665222 1.3808.291222 1.8783.792042.4975.500818.7777 1.177538.7797 1.883488v17.48917c-.0097.3563.0522.7109.1819 1.0429.1297.3319.3246.6345.5732.8899s.5458.4584.8741.597c.3284.1386.6812.21 1.0376.21s.7092-.0714 1.0375-.21.6256-.3416.8742-.597.4434-.558.5731-.8899c.1297-.332.1916-.6866.182-1.0429v-9.159c.003-.7087.2859-1.38742.787-1.88851.5011-.5011 1.1798-.78399 1.8885-.78706.7059.00665 1.3807.29125 1.8783.79207.4975.50082.7777 1.1775.7797 1.8835v9.159c0 .7071.2809 1.3851.7808 1.8851.5.4999 1.178.7807 1.885.7807s1.3851-.2808 1.885-.7807c.4999-.5.7808-1.178.7808-1.8851v-17.48917c.0031-.70898.2862-1.38804.7878-1.889189.5015-.50115 1.1807-.78378072 1.8896-.786341.7067.00360393 1.3832.287251 1.8811.788788.4979.501532.7767 1.180042.7751 1.886742v8.33017c.0188.6948.3079 1.3548.806 1.8396s1.1656.7561 1.8607.7561c.695 0 1.3627-.2713 1.8608-.7561s.7872-1.1448.806-1.8396c.0031-.709.2862-1.38805.7877-1.8892s1.1808-.78381 1.8898-.78637c.7067.00361 1.3832.28728 1.8811.78881.4978.50154.7765 1.18006.775 1.88676v26.0081c-.0026.7036-.2833 1.3777-.7808 1.8753-.4976.4975-1.1716.7782-1.8753.7808-.7059-.0015-1.3829-.2812-1.8841-.7784-.5012-.4971-.7863-1.1718-.7934-1.8777.0096-.3563-.0522-.7109-.1819-1.0428-.1297-.332-.3246-.6346-.5732-.89s-.5458-.4584-.8742-.597c-.3283-.1386-.6811-.21-1.0375-.21s-.7091.0714-1.0374.21c-.3284.1386-.6257.3416-.8742.597-.2486.2554-.4436.558-.5732.89-.1297.3319-.1915.6865-.1819 1.0428v8.3204c.0005.349-.0679.6947-.2011 1.0173-.1333.3226-.3289.6158-.5756.8626-.2467.2469-.5398.4428-.8623.5763-.3224.1335-.6681.2021-1.0172.2018-.7068.0011-1.3853-.2781-1.8868-.7763s-.7851-1.1748-.7887-1.8817v-17.5126c0-.707-.2808-1.385-.7807-1.885-.4999-.4999-1.178-.7808-1.885-.7808s-1.3851.2809-1.8851.7808c-.4999.5-.7808 1.178-.7808 1.885v9.1786c-.0061.7028-.2881 1.3752-.7853 1.872-.4972.4969-1.1697.7784-1.8726.784-.7056-.002-1.3821-.2819-1.8829-.779-.5007-.4971-.7855-1.1715-.7927-1.877v-9.1786c-.0187-.6948-.308-1.3548-.806-1.8396-.4981-.4848-1.1657-.7561-1.8607-.7561-.6951 0-1.3628.2713-1.8608.7561-.4981.4848-.7873 1.1448-.806 1.8396v17.5126c-.0021.7043-.2828 1.3792-.7808 1.8772-.4981.4981-1.173.7788-1.8773.7808-.707.0016-1.3858-.2774-1.8874-.7757s-.785-1.1753-.7881-1.8823v-8.3282c.0096-.3563-.0523-.7108-.182-1.0428s-.3245-.6346-.57307-.89c-.24859-.2554-.54586-.4584-.8742-.597s-.68114-.21-1.03753-.21c-.3564 0-.70919.0714-1.03753.21s-.62552.3416-.87411.597c-.24858.2554-.44351.558-.57321.89-.12969.332-.19157.6865-.18194 1.0428-.00716.7056-.29192 1.3799-.79269 1.8771-.50076.4971-1.17723.777-1.88284.779-.70289-.0056-1.37538-.2872-1.872591-.784-.497213-.4969-.77926358-1.1692-.78536693-1.8721v-26.0003c.00201638-.706.28212493-1.38268.77966693-1.8835.497541-.50082 1.172371-.78542 1.878291-.79207zm8.00912 10.34607c.0096-.3563-.0523-.7109-.182-1.0428-.1296-.332-.3246-.6346-.57317-.89-.24858-.2554-.54576-.4584-.8741-.597s-.68114-.21-1.03753-.21c-.3564 0-.70919.0714-1.03753.21s-.62562.3416-.8742.597c-.24859.2554-.44343.558-.57312.89-.12969.3319-.19157.6865-.18194 1.0428v10.6671c.01877.6948.30801 1.3548.80608 1.8396s1.16565.7561 1.86071.7561c.69505 0 1.36264-.2713 1.86071-.7561.49809-.4848.78729-1.1448.80609-1.8396zm26.658 10.6671v-10.6671c-.0096-.3563.0522-.7109.1819-1.0428.1296-.332.3246-.6346.5732-.89s.5458-.4584.8742-.597c.3283-.1386.6811-.21 1.0375-.21s.7091.0714 1.0374.21c.3284.1386.6256.3416.8742.597s.4435.558.5732.89c.1297.3319.1915.6865.1819 1.0428v10.6671c-.0188.6948-.3079 1.3548-.806 1.8396s-1.1656.7561-1.8607.7561-1.3627-.2713-1.8608-.7561-.7872-1.1448-.806-1.8396z" fill-rule="evenodd"/></g></svg>