<svg fill="none" height="91" viewBox="0 0 149 91" width="149" xmlns="http://www.w3.org/2000/svg" xmlns:xlink="http://www.w3.org/1999/xlink"><clipPath id="a"><path d="m0 0h148.89v90.91h-148.89z"/></clipPath><g clip-path="url(#a)" fill="#a855f7"><path d="m146.25 90.9099c1.458 0 2.64-1.182 2.64-2.64s-1.182-2.64-2.64-2.64-2.64 1.182-2.64 2.64 1.182 2.64 2.64 2.64z"/><path d="m122.31 90.9099c1.458 0 2.64-1.182 2.64-2.64s-1.182-2.64-2.64-2.64-2.64 1.182-2.64 2.64 1.182 2.64 2.64 2.64z"/><path d="m98.3799 90.9099c.5246.0019 1.0379-.1518 1.475-.4417.4371-.29.7781-.7033.9801-1.1873s.256-1.0172.155-1.5319-.352-.9878-.723-1.3594c-.3698-.3716-.842-.625-1.3563-.7281-.5143-.103-1.0477-.0511-1.5325.1491-.4848.2003-.8993.54-1.1909.976s-.4474.9487-.4474 1.4732c0 .7011.2779 1.3737.7727 1.8703.4948.4967 1.1663.7771 1.8673.7798z"/><path d="m74.45 90.9099c.5241 0 1.0365-.1554 1.4723-.4466s.7754-.7051.976-1.1893c.2005-.4842.253-1.0171.1507-1.5311-.1022-.5141-.3546-.9862-.7252-1.3568s-.8428-.6231-1.3568-.7253c-.5141-.1023-1.0469-.0498-1.5311.1508-.4843.2006-.8981.5402-1.1893.976-.2911.4358-.4466.9481-.4466 1.4722 0 .348.0685.6927.2016 1.0142.1332.3215.3284.6136.5745.8597s.5382.4413.8598.5745c.3215.1332.6661.2017 1.0141.2017z"/><path d="m50.51 90.9099c1.458 0 2.64-1.182 2.64-2.64s-1.182-2.64-2.64-2.64-2.64 1.182-2.64 2.64 1.182 2.64 2.64 2.64z"/><path d="m27.5903 90.5957c1.3485-.5544 1.9923-2.0971 1.4378-3.4456-.5544-1.3485-2.097-1.9921-3.4455-1.4377s-1.9923 2.097-1.4379 3.4455c.5545 1.3485 2.0971 1.9923 3.4456 1.4378z"/><path d="m2.64998 85.6602c-.52496-.002-1.03863.152-1.47595.4424-.437318.2904-.778535.7042-.980345 1.1889-.20181104.4846-.2551305 1.0182-.1531987 1.5332.1019317.515.3544977.9881.7257077 1.3593.371206.3712.844276.6238 1.359256.7257s1.04869.0486 1.53332-.1532.89842-.543 1.18885-.9803c.29042-.4373.44436-.951.44238-1.476-.00264-.6994-.2816-1.3694-.77612-1.8639-.49453-.4945-1.16454-.7735-1.8639-.7761z"/><path d="m146.25 69.5002c1.458 0 2.64-1.182 2.64-2.64s-1.182-2.64-2.64-2.64-2.64 1.182-2.64 2.64 1.182 2.64 2.64 2.64z"/><path d="m122.31 69.5002c1.458 0 2.64-1.182 2.64-2.64s-1.182-2.64-2.64-2.64-2.64 1.182-2.64 2.64 1.182 2.64 2.64 2.64z"/><path d="m98.38 69.5002c.5249.002 1.0387-.152 1.476-.4424.437-.2905.779-.7043.98-1.1889.202-.4846.256-1.0183.154-1.5332-.102-.515-.355-.9882-.726-1.3594-.3713-.3712-.8445-.6237-1.3595-.7257-.515-.1019-1.0486-.0486-1.5332.1532s-.8984.5431-1.1888.9804c-.2905.4373-.4445.951-.4426 1.476.0027.6993.2818 1.3693.7763 1.8638s1.1644.7736 1.8638.7762z"/><path d="m74.45 69.5002c.5246 0 1.0373-.1557 1.4733-.4473.436-.2917.7757-.7061.976-1.1909.2002-.4848.2521-1.0182.149-1.5325s-.3564-.9865-.728-1.3567-.8448-.6218-1.3595-.7229-1.0478-.0472-1.5319.1549c-.484.2021-.8971.5433-1.1871.9804s-.4438.9504-.4418 1.475c0 .3475.0686.6916.2019 1.0126.1333.3209.3286.6124.5748.8577s.5384.4395.8599.5716.6659.1994 1.0134.1981z"/><path d="m50.51 69.5002c1.458 0 2.64-1.182 2.64-2.64s-1.182-2.64-2.64-2.64-2.64 1.182-2.64 2.64 1.182 2.64 2.64 2.64z"/><path d="m27.5927 69.193c1.3485-.5545 1.9922-2.0971 1.4378-3.4456-.5545-1.3485-2.0971-1.9923-3.4456-1.4378-1.3485.5544-1.9922 2.0971-1.4378 3.4456s2.0971 1.9922 3.4456 1.4378z"/><path d="m2.64998 69.5002c.52455 0 1.03726-.1557 1.47327-.4473.436-.2917.77568-.7061.97595-1.1909.20028-.4848.25224-1.0182.14917-1.5325-.10306-.5143-.35654-.9865-.72815-1.3567s-.84467-.6218-1.35937-.7229c-.51471-.1011-1.04782-.0472-1.53186.1549-.48405.2021-.89728.5433-1.18726.9804s-.44375158.9504-.44177216 1.475c-.0000025.3475.06860696.6916.20190416 1.0126.133297.3209.328744.6124.574951.8577s.538407.4395.859867.5716c.32145.1321.66577.1994 1.0133.1981z"/><path d="m146.25 48.0901c1.458 0 2.64-1.182 2.64-2.64 0-1.4581-1.182-2.64-2.64-2.64s-2.64 1.1819-2.64 2.64c0 1.458 1.182 2.64 2.64 2.64z"/><path d="m122.31 48.0901c1.458 0 2.64-1.182 2.64-2.64 0-1.4581-1.182-2.64-2.64-2.64s-2.64 1.1819-2.64 2.64c0 1.458 1.182 2.64 2.64 2.64z"/><path d="m98.3799 48.0998c.5246.002 1.0379-.1517 1.475-.4417s.7781-.7032.9801-1.1873c.202-.484.256-1.0171.155-1.5318s-.352-.9878-.723-1.3595c-.3698-.3716-.842-.625-1.3563-.728-.5143-.1031-1.0477-.0512-1.5325.1491-.4848.2002-.8993.5399-1.1909.9759s-.4474.9487-.4474 1.4733c0 .7011.2779 1.3736.7727 1.8703s1.1663.7771 1.8673.7797z"/><path d="m74.45 48.0998c.5241 0 1.0365-.1554 1.4723-.4466s.7754-.705.976-1.1893c.2005-.4842.253-1.017.1507-1.5311-.1022-.514-.3546-.9863-.7252-1.3569s-.8428-.6229-1.3568-.7252c-.5141-.1022-1.0469-.0497-1.5311.1508-.4843.2006-.8981.5403-1.1893.9761-.2911.4357-.4466.9481-.4466 1.4722 0 .348.0685.6926.2016 1.0141.1332.3216.3284.6136.5745.8597s.5382.4413.8598.5745c.3215.1332.6661.2017 1.0141.2017z"/><path d="m50.51 48.0901c1.458 0 2.64-1.182 2.64-2.64 0-1.4581-1.182-2.64-2.64-2.64s-2.64 1.1819-2.64 2.64c0 1.458 1.182 2.64 2.64 2.64z"/><path d="m27.5913 47.7915c1.3485-.5544 1.9922-2.0971 1.4377-3.4456-.5544-1.3485-2.097-1.9921-3.4455-1.4377s-1.9923 2.097-1.4378 3.4455c.5544 1.3485 2.0971 1.9923 3.4456 1.4378z"/><path d="m2.64996 48.0998c.52412 0 1.0365-.1554 1.47229-.4466s.77538-.705.97596-1.1893c.20057-.4842.25313-1.017.15087-1.5311-.10225-.514-.35461-.9863-.72522-1.3569-.3706-.3706-.84288-.6229-1.35693-.7252-.51405-.1022-1.04678-.0497-1.531.1508-.48423.2006-.89815.5403-1.189336.9761-.291185.4357-.44665504.9481-.44665504 1.4722 0 .7028.27927404 1.3768.77624504 1.8738.496976.497 1.170956.7762 1.873776.7762z"/><path d="m146.25 26.6902c1.458 0 2.64-1.182 2.64-2.64 0-1.4581-1.182-2.64-2.64-2.64s-2.64 1.1819-2.64 2.64c0 1.458 1.182 2.64 2.64 2.64z"/><path d="m122.31 26.6902c1.458 0 2.64-1.182 2.64-2.64 0-1.4581-1.182-2.64-2.64-2.64s-2.64 1.1819-2.64 2.64c0 1.458 1.182 2.64 2.64 2.64z"/><path d="m98.38 26.6599c.5249.0019 1.0387-.152 1.476-.4425.437-.2904.779-.7042.98-1.1888.202-.4846.256-1.0183.154-1.5333s-.355-.988-.726-1.3592c-.3713-.3712-.8445-.6239-1.3595-.7258s-1.0486-.0486-1.5332.1532-.8984.543-1.1888.9803c-.2905.4374-.4445.9511-.4426 1.4761.0027.6993.2818 1.3693.7763 1.8638.4945.4946 1.1644.7735 1.8638.7762z"/><path d="m74.45 26.6599c.5246 0 1.0373-.1557 1.4733-.4474.436-.2916.7757-.706.976-1.1908.2002-.4848.2521-1.0182.149-1.5325s-.3564-.9865-.728-1.3567-.8448-.6218-1.3595-.7229c-.5147-.1012-1.0478-.0472-1.5319.1549-.484.2021-.8971.5433-1.1871.9804s-.4438.9504-.4418 1.475c0 .3475.0686.6916.2019 1.0126.1333.3209.3286.6124.5748.8577.2462.2452.5384.4395.8599.5716s.6659.1994 1.0134.1981z"/><path d="m50.51 26.6902c1.458 0 2.64-1.182 2.64-2.64 0-1.4581-1.182-2.64-2.64-2.64s-2.64 1.1819-2.64 2.64c0 1.458 1.182 2.64 2.64 2.64z"/><path d="m27.5937 26.3892c1.3485-.5544 1.9922-2.097 1.4378-3.4455-.5545-1.3485-2.0971-1.9923-3.4456-1.4378-1.3485.5544-1.9923 2.0971-1.4378 3.4456.5544 1.3485 2.0971 1.9922 3.4456 1.4377z"/><path d="m2.64998 26.6599c.52455 0 1.03726-.1557 1.47327-.4474.436-.2916.77568-.706.97595-1.1908.20028-.4848.25224-1.0182.14917-1.5325-.10306-.5143-.35654-.9865-.72815-1.3567s-.84467-.6218-1.35937-.7229c-.51471-.1012-1.04782-.0472-1.53186.1549-.48405.2021-.89728.5433-1.18726.9804s-.44375158.9504-.44177216 1.475c-.0000025.3475.06860696.6916.20190416 1.0126.133297.3209.328744.6124.574951.8577.246207.2452.538407.4395.859867.5716.32145.1321.66577.1994 1.0133.1981z"/><path d="m146.25 5.28c1.458 0 2.64-1.18197 2.64-2.64s-1.182-2.64-2.64-2.64-2.64 1.18197-2.64 2.64 1.182 2.64 2.64 2.64z"/><path d="m122.31 5.28c1.458 0 2.64-1.18197 2.64-2.64s-1.182-2.64-2.64-2.64-2.64 1.18197-2.64 2.64 1.182 2.64 2.64 2.64z"/><path d="m98.3799 5.29024c.5246.00198 1.0379-.15173 1.475-.44171s.7781-.70321.9801-1.18726c.202-.48404.256-1.01715.155-1.53186-.101-.5147-.352-.98782-.723-1.359432-.3698-.37161-.842-.625025-1.3563-.7280886-.5143-.1030639-1.0477-.05116609-1.5325.1491086-.4848.200275-.8993.539948-1.1909.975952-.2916.436-.4474.94872-.4474 1.47327 0 .70109.2779 1.37361.7727 1.8703.4948.49668 1.1663.77708 1.8673.77972z"/><path d="m74.45 5.29023c.5241 0 1.0365-.1554 1.4723-.44659s.7754-.70505.976-1.18927c.2005-.48422.253-1.01708.1507-1.53113-.1022-.51405-.3546-.98626-.7252-1.35687-.3706-.370609-.8428-.622969-1.3568-.72522-.5141-.1022508-1.0469-.04975433-1.5311.150818-.4843.200572-.8981.540223-1.1893.976012-.2911.43579-.4466.94811-.4466 1.47223 0 .348.0685.69265.2016 1.01416.1332.32151.3284.61361.5745.85968.2461.24608.5382.44129.8598.57446.3215.13318.6661.20172 1.0141.20172z"/><path d="m50.51 5.28c1.458 0 2.64-1.18197 2.64-2.64s-1.182-2.64-2.64-2.64-2.64 1.18197-2.64 2.64 1.182 2.64 2.64 2.64z"/><path d="m27.5922 4.97757c1.3485-.55443 1.9922-2.09709 1.4378-3.44559-.5545-1.348504-2.0971-1.992173-3.4456-1.4377365s-1.9923 2.0970365-1.4378 3.4455365c.5544 1.3485 2.0971 1.99223 3.4456 1.43779z"/><path d="m2.64996 5.29023c.52412 0 1.0365-.1554 1.47229-.44659s.77538-.70505.97596-1.18927c.20057-.48422.25313-1.01708.15087-1.53113-.10225-.51405-.35461-.98626-.72522-1.35687-.3706-.370609-.84288-.622969-1.35693-.72522-.51405-.1022508-1.04678-.04975433-1.531.150818-.48423.200572-.89815.540223-1.189336.976012-.291185.43579-.44665504.94811-.44665504 1.47223 0 .70282.27927404 1.37687.77624504 1.87384.496976.49697 1.170956.77618 1.873776.77618z"/></g></svg>